<svg width="813" height="201" viewBox="0 0 813 201" fill="none" xmlns="http://www.w3.org/2000/svg">
<path d="M283.57 97.1481C283.57 46.1641 220.228 4.60546 142.086 4.60546C63.9469 4.60546 0.604248 46.1641 0.604248 97.1481C0.604248 98.4628 0.586914 102.103 0.586914 102.565C0.586914 156.651 55.9523 200.457 142.066 200.457C228.714 200.457 283.57 156.663 283.57 102.576V97.1481Z" fill="#002F6D"/>
<path d="M278.152 97.1026C278.152 145.167 217.244 184.131 142.111 184.131C66.9751 184.131 6.07373 145.167 6.07373 97.1026C6.07373 49.0332 66.9751 10.0679 142.111 10.0679C217.244 10.0679 278.152 49.0332 278.152 97.1026Z" fill="#FFE900"/>
<path d="M96.9401 69.6441C96.8668 69.7815 95.5108 71.1855 96.3895 72.3135C98.5388 75.0561 105.167 76.6281 111.872 75.1255C115.865 74.2281 120.98 70.1561 125.94 66.2241C131.312 61.9548 136.644 57.6815 142.003 55.9815C147.676 54.1761 151.311 54.9495 153.712 55.6775C156.348 56.4628 159.444 58.1975 164.387 61.9055C173.695 68.9028 211.129 101.573 217.593 107.224C222.801 104.869 245.945 94.9055 277.404 87.9708C274.673 71.2001 264.468 55.8588 248.999 43.2948C227.44 52.3508 201.087 57.0761 175.317 44.4921C175.187 44.4375 161.239 37.8361 147.481 38.1615C127.039 38.6348 118.184 47.4841 108.807 56.8521L96.9401 69.6441Z" fill="white"/>
<path d="M216.072 110.776C215.635 110.385 172.059 72.2597 162.191 64.8397C156.478 60.5557 153.299 59.4624 149.963 59.0384C148.227 58.8131 145.826 59.1357 144.15 59.5944C139.558 60.8437 133.554 64.8584 128.223 69.0851C122.702 73.4811 117.5 77.6211 112.67 78.7024C106.503 80.0851 98.9682 78.4531 95.5309 76.1291C94.1349 75.1931 93.1562 74.1104 92.6842 73.0104C91.4162 70.0651 93.7602 67.7117 94.1429 67.3171L106.167 54.3117C107.562 52.9171 108.971 51.5211 110.412 50.1464C106.531 50.6517 102.947 51.6424 99.4562 52.6144C95.1002 53.8397 90.9096 55.0037 86.6709 55.0024C84.9002 55.0024 75.4162 53.4477 73.6176 52.9584C62.7362 49.9797 53.1856 47.0797 38.9189 40.4211C21.8282 53.1451 10.3949 69.0557 7.09491 86.5811C9.54824 87.2317 13.5083 88.4091 15.1683 88.7784C53.8509 97.3797 65.9016 106.241 68.0856 108.088C70.4522 105.458 73.8642 103.79 77.6749 103.79C81.9576 103.796 85.8136 105.946 88.1562 109.269C90.3736 107.521 93.4282 106.025 97.3776 106.026C99.1709 106.026 101.034 106.358 102.912 106.997C107.274 108.494 109.526 111.4 110.696 114.028C112.159 113.368 113.96 112.881 116.079 112.886C118.162 112.886 120.328 113.361 122.512 114.306C129.644 117.366 130.756 124.373 130.107 129.656C130.616 129.594 131.127 129.573 131.646 129.573C140.102 129.577 146.978 136.45 146.978 144.912C146.978 147.529 146.308 149.992 145.146 152.15C147.444 153.445 153.311 156.373 158.46 155.721C162.574 155.198 164.135 153.796 164.696 153.004C165.079 152.461 165.484 151.826 165.104 151.37L154.191 139.245C154.191 139.245 152.394 137.545 152.988 136.888C153.604 136.213 154.711 137.18 155.499 137.84C161.055 142.478 167.836 149.481 167.836 149.481C167.95 149.554 168.402 150.44 170.908 150.889C173.07 151.276 176.888 151.053 179.536 148.882C180.203 148.332 180.871 147.642 181.428 146.94C181.387 146.969 181.348 147.02 181.308 147.037C184.099 143.464 180.998 139.85 180.998 139.85L168.254 125.541C168.254 125.541 166.434 123.857 167.051 123.178C167.607 122.59 168.779 123.477 169.576 124.141C173.614 127.516 179.315 133.238 184.775 138.588C185.839 139.372 190.646 142.337 197 138.161C200.863 135.634 201.636 132.524 201.527 130.178C201.259 127.074 198.835 124.86 198.835 124.86L181.428 107.361C181.428 107.361 179.591 105.789 180.243 104.994C180.77 104.328 181.968 105.29 182.748 105.946C188.295 110.585 203.307 124.346 203.307 124.346C203.516 124.498 208.704 128.19 215.114 124.11C217.406 122.645 218.87 120.436 218.994 117.872C219.214 113.418 216.072 110.776 216.072 110.776Z" fill="white"/>
<path d="M131.645 132.961C128.946 132.929 125.991 134.533 125.605 134.299C125.394 134.157 125.771 133.074 126.025 132.45C126.283 131.826 129.838 121.131 121.174 117.418C114.543 114.569 110.494 117.773 109.099 119.219C108.733 119.601 108.57 119.569 108.529 119.085C108.395 117.161 107.534 111.95 101.809 110.207C93.6325 107.699 88.3739 113.41 87.0392 115.469C86.4432 110.809 82.5005 107.19 77.6725 107.185C72.4285 107.179 68.1765 111.429 68.1699 116.673C68.1685 121.915 72.4179 126.166 77.6645 126.166C80.2112 126.174 82.5245 125.154 84.2272 123.518C84.2805 123.565 84.3019 123.655 84.2739 123.837C83.8752 126.185 83.1405 134.718 92.0739 138.19C95.6579 139.579 98.7045 138.547 101.23 136.775C101.986 136.243 102.106 136.466 101.999 137.177C101.675 139.373 102.085 144.069 108.671 146.738C113.683 148.773 116.649 146.687 118.591 144.893C119.437 144.119 119.669 144.247 119.711 145.439C119.95 151.793 125.226 156.833 131.631 156.837C138.23 156.841 143.577 151.505 143.583 144.911C143.589 138.311 138.242 133.034 131.645 132.961Z" fill="white"/>
<path d="M131.645 155.987C125.663 155.98 120.802 151.337 120.583 145.415C120.565 144.904 120.514 143.555 119.373 143.555C118.902 143.555 118.495 143.836 118.025 144.259C116.71 145.48 115.034 146.717 112.589 146.717C111.477 146.717 110.275 146.461 109.005 145.94C102.687 143.384 102.602 139.044 102.861 137.3C102.929 136.833 102.951 136.352 102.633 135.972L102.247 135.625H101.851C101.529 135.625 101.201 135.757 100.751 136.075C98.9219 137.355 97.1725 137.979 95.3899 137.979C94.4112 137.979 93.4059 137.783 92.3952 137.396C84.0819 134.157 84.7392 126.308 85.1445 123.945C85.2059 123.468 85.0859 123.096 84.7819 122.849L84.1939 122.365L83.6445 122.893C82.0245 124.456 79.9032 125.308 77.6752 125.308C72.9139 125.304 69.0379 121.432 69.0405 116.673C69.0445 111.905 72.9232 108.04 77.6885 108.045C81.9912 108.045 85.6565 111.283 86.2072 115.581L86.5005 117.9L87.7739 115.94C87.9179 115.708 91.4059 110.432 97.8232 110.439C99.0419 110.439 100.303 110.635 101.571 111.027C106.685 112.588 107.551 117.225 107.686 119.156C107.777 120.284 108.578 120.335 108.734 120.335C109.175 120.335 109.502 120.057 109.731 119.812C110.697 118.805 112.799 117.132 116.09 117.132C117.593 117.135 119.195 117.491 120.85 118.204C128.978 121.691 125.291 132.019 125.247 132.128C124.547 133.84 124.522 134.595 125.178 135.032L125.499 135.181H125.733C126.101 135.181 126.557 135.024 127.309 134.769C128.415 134.387 130.086 133.809 131.646 133.813H131.65C137.77 133.883 142.746 138.861 142.742 144.911C142.734 151.023 137.757 155.987 131.645 155.987ZM217.755 106.213C204.335 94.4974 173.315 67.5307 164.915 61.2227C160.114 57.6147 156.841 55.708 153.967 54.8507C152.674 54.4614 150.89 54.0174 148.59 54.0147C146.45 54.0147 144.157 54.4014 141.761 55.164C136.333 56.8814 130.923 61.1814 125.691 65.3387L125.422 65.552C120.547 69.4254 115.51 73.4334 111.699 74.284C110.037 74.6587 108.326 74.8534 106.617 74.8534C102.35 74.8467 98.5139 73.6174 97.0752 71.7814C96.8379 71.4787 96.9912 70.9867 97.5459 70.2814L97.6179 70.1867L109.425 57.4627C118.675 48.2147 127.41 39.484 147.515 39.02C147.85 39.012 148.189 39.0067 148.522 39.0067C161.035 39.0147 173.547 44.6174 174.95 45.2667C186.687 50.988 198.799 53.8974 210.978 53.908C223.667 53.912 236.759 50.7707 250.527 44.4307C248.99 43.136 247.387 41.88 245.742 40.644C233.649 45.888 222.126 48.5387 211.013 48.5334C199.658 48.524 188.31 45.7974 177.297 40.424C176.717 40.1467 162.901 33.6334 148.529 33.6254C148.153 33.6254 147.767 33.6334 147.393 33.6374C130.503 34.032 120.989 40.032 114.593 45.2854C108.37 45.4347 103.002 46.9374 98.2259 48.2707C93.9645 49.4547 90.2832 50.484 86.6925 50.48C85.2152 50.48 82.5525 50.3454 82.3125 50.3374C78.1845 50.2107 57.3899 45.1094 40.8445 38.848C39.1552 40.0427 37.5299 41.2774 35.9472 42.5347C53.2299 49.6214 74.2632 55.1014 80.9005 55.532C82.7459 55.652 84.7152 55.8614 86.6845 55.8654C91.0765 55.8654 95.4552 54.632 99.7005 53.4467C102.205 52.7414 104.971 51.9774 107.875 51.42C107.101 52.18 106.327 52.9534 105.553 53.7347L93.5525 66.7107C92.6059 67.6627 90.5605 70.208 91.9099 73.3414C92.4472 74.6054 93.5379 75.8134 95.0619 76.8427C97.9232 78.7667 103.042 80.068 107.797 80.072C109.599 80.072 111.306 79.8934 112.877 79.54C117.905 78.4107 123.179 74.2107 128.767 69.768C133.221 66.2294 139.547 61.7374 144.391 60.4187C145.742 60.0494 147.402 59.8227 148.741 59.8227C149.139 59.8254 149.514 59.8374 149.867 59.8867C153.066 60.2934 156.161 61.3827 161.685 65.528C171.529 72.9254 215.11 111.045 215.534 111.423C215.567 111.448 218.342 113.845 218.149 117.829C218.046 120.049 216.811 122.024 214.669 123.395C212.809 124.571 210.889 125.173 208.947 125.173C206.034 125.167 204.03 123.801 203.901 123.709C203.741 123.579 188.81 109.888 183.318 105.291C182.441 104.565 181.593 103.913 180.73 103.913C180.271 103.909 179.865 104.105 179.59 104.451C178.726 105.515 179.694 106.989 180.834 107.959L198.278 125.489C198.299 125.511 200.447 127.527 200.685 130.215C200.821 133.121 199.434 135.549 196.545 137.447C194.486 138.799 192.401 139.488 190.362 139.488C187.685 139.488 185.805 138.267 185.39 137.979L182.886 135.513C178.314 131.013 173.593 126.363 170.138 123.477C169.295 122.777 168.394 122.132 167.535 122.132C167.115 122.132 166.731 122.289 166.438 122.597C166.042 123.036 165.77 123.824 166.751 125.129C167.154 125.667 167.63 126.112 167.63 126.112L180.361 140.403C180.466 140.531 182.983 143.521 180.645 146.505L180.198 147.073C179.817 147.497 179.405 147.884 179.014 148.212C176.845 149.996 173.943 150.188 172.797 150.188C172.179 150.188 171.587 150.133 171.071 150.043C169.818 149.816 168.974 149.465 168.567 148.981L168.411 148.825C167.717 148.103 161.301 141.556 155.993 137.125C155.293 136.539 154.422 135.797 153.518 135.797C153.074 135.797 152.674 135.972 152.37 136.312C151.318 137.464 152.898 139.181 153.566 139.813L164.422 151.783C164.409 151.892 164.27 152.14 164.007 152.519C163.618 153.052 162.302 154.368 158.363 154.868C157.894 154.925 157.406 154.952 156.926 154.952C152.865 154.952 148.535 152.981 146.302 151.796C147.317 149.649 147.843 147.289 147.843 144.915C147.85 135.98 140.594 128.716 131.659 128.708C131.47 128.708 131.267 128.716 131.074 128.723C131.367 124.643 130.791 116.92 122.863 113.517C120.583 112.529 118.306 112.028 116.094 112.028C114.363 112.028 112.699 112.324 111.129 112.925C109.489 109.735 106.761 107.409 103.202 106.195C101.238 105.515 99.2819 105.172 97.3925 105.172C94.0939 105.172 91.0539 106.14 88.3419 108.069C85.7459 104.843 81.8205 102.927 77.6885 102.927C74.0752 102.927 70.5965 104.375 68.0205 106.925C64.6432 104.347 51.2392 95.832 15.3685 87.688C13.6312 87.2947 9.64454 86.1507 7.20054 85.436C6.79521 87.3774 6.4872 89.3414 6.2832 91.3227C6.2832 91.3227 12.9005 92.9067 14.2019 93.1974C50.8459 101.337 62.9539 109.801 65.0019 111.4C64.3099 113.064 63.9485 114.861 63.9445 116.673C63.9405 124.239 70.0965 130.407 77.6725 130.415C78.5232 130.415 79.3645 130.343 80.1939 130.188C81.3339 135.757 84.9779 139.981 90.5512 142.147C92.1765 142.775 93.8259 143.095 95.4419 143.095C96.4859 143.099 97.5405 142.967 98.5685 142.705C99.5965 145.32 101.915 148.576 107.09 150.677C108.902 151.409 110.718 151.792 112.483 151.792C113.923 151.792 115.334 151.541 116.677 151.041C119.158 157.084 125.058 161.089 131.641 161.089C136.001 161.093 140.189 159.317 143.243 156.173C145.855 157.628 151.378 160.253 156.95 160.265C157.673 160.265 158.351 160.215 159.026 160.129C164.563 159.429 167.142 157.268 168.325 155.583C168.537 155.291 168.73 154.977 168.894 154.656C170.203 155.028 171.641 155.335 173.286 155.339C176.31 155.339 179.211 154.309 182.147 152.173C185.029 150.089 187.078 147.111 187.371 144.569C187.377 144.536 187.386 144.496 187.39 144.459C188.358 144.66 189.355 144.765 190.353 144.765C193.465 144.765 196.525 143.792 199.451 141.877C205.097 138.176 206.078 133.34 205.985 130.179C206.974 130.385 207.983 130.492 208.985 130.492C211.91 130.492 214.779 129.609 217.515 127.865C221.013 125.629 223.118 122.205 223.435 118.219C223.658 115.509 222.985 112.777 221.558 110.429C231.014 106.355 252.631 98.468 278.085 92.7334C277.931 90.76 277.647 88.8107 277.295 86.8707C246.495 93.7054 223.514 103.651 217.755 106.213Z" fill="#002F6D"/>
<path d="M340.513 46.1272V87.7446H323.89V49.4499C323.89 30.8552 333.249 21.6219 351.842 21.6219C360.214 21.6219 366.617 23.4686 371.296 27.1619C375.977 23.5912 382.377 21.8685 390.753 21.8685C409.348 21.8685 418.582 31.1019 418.458 49.6952V87.9926H409.961C404.544 87.6206 401.836 85.0366 401.836 79.8646V46.3726C401.466 39.5992 397.77 36.2739 390.506 36.2739C383.242 36.2739 379.545 39.5992 379.425 46.3726V87.7446H362.925V46.1272C362.553 39.3526 358.862 36.0286 351.597 36.0286C344.33 36.0286 340.636 39.3526 340.513 46.1272Z" fill="#002F6D"/>
<path d="M498.754 54.3824C499.246 33.3251 509.65 21.6211 531.446 21.6211H536.39V38.6131L528.779 38.7771C519.666 38.7771 515.377 44.6531 515.377 54.1344V87.9971H498.754V54.3824Z" fill="#002F6D"/>
<path d="M649.923 60.4645V55.1339C646.106 56.7352 641.672 57.3885 636.87 58.3725C630.344 59.6045 627.018 62.6832 627.018 67.4845C627.388 72.6565 630.098 75.1179 635.268 75.1179C644.382 75.1179 649.923 69.6992 649.923 60.4645ZM628.083 42.0499L612.834 42.0325C613.416 29.4485 619.75 21.0619 638.347 21.0619C656.326 21.0619 665.439 26.9725 665.808 39.0405V61.2045C665.808 79.1819 654.972 87.1859 637.362 88.4165C621.726 89.6472 610.888 82.3832 610.888 67.9765C611.258 52.3365 622.587 48.1525 639.087 46.5512C646.106 45.6899 649.676 43.5952 649.676 40.0259C649.307 36.3312 645.859 34.5725 639.087 34.4845C631.416 34.3832 628.946 38.9712 628.083 42.0499Z" fill="#002F6D"/>
<path d="M692.091 54.9912C691.969 68.1685 696.399 74.8165 705.759 74.8165C715.117 74.8165 719.794 68.1685 719.794 54.9912C719.426 42.4312 714.871 36.2739 706.005 36.2739C697.141 36.2739 692.581 42.4312 692.091 54.9912ZM736.049 0.832547V59.5485C736.049 79.1259 725.829 88.8539 705.511 88.7312C685.318 88.3592 675.219 77.4019 675.219 55.7312C675.219 33.5672 683.839 22.2379 701.201 21.6219C709.33 21.6219 715.611 24.9472 719.794 31.7192V10.9579L719.834 9.12454C725.25 1.04188 736.049 0.832547 736.049 0.832547Z" fill="#002F6D"/>
<path d="M444.417 97.9163H448.703V184.183H432.327V108.456C432.327 105.999 437.417 97.9163 444.417 97.9163Z" fill="#002F6D"/>
<path d="M528.839 170.265C519.479 170.265 515.045 163.619 515.169 150.443C515.663 137.881 520.219 131.725 529.085 131.725C537.951 131.725 542.505 137.881 542.876 150.443C542.876 163.619 538.197 170.265 528.839 170.265ZM533.639 117.072C525.515 117.072 519.356 120.397 515.169 127.169L515.167 97.9159H513.312C505.145 98.0146 500.855 102.375 498.793 105.937V105.375V154.999C498.793 174.575 509.013 184.304 529.331 184.183C549.527 183.809 559.621 172.852 559.621 151.181C559.621 129.017 551.001 117.687 533.639 117.072" fill="#002F6D"/>
<path d="M467.362 37.9885C465.275 35.6992 462.102 34.5512 457.846 34.5512C455.063 34.5512 452.753 35.0232 450.911 35.9632C449.07 36.9059 447.597 38.0712 446.493 39.4619C445.387 40.8539 444.609 42.3272 444.159 43.8819C443.709 45.4365 443.443 46.8272 443.362 48.0552H471.719C470.901 43.6365 469.447 40.2819 467.362 37.9885ZM447.659 71.3792C450.277 73.9179 454.042 75.1859 458.951 75.1859C462.47 75.1859 465.501 74.3072 468.037 72.5459C470.571 70.7872 472.127 68.9245 472.701 66.9605H488.047C485.591 74.5712 481.827 80.0152 476.753 83.2872C471.677 86.5619 465.539 88.1979 458.338 88.1979C453.346 88.1979 448.843 87.4005 444.834 85.8045C440.823 84.2085 437.427 81.9365 434.646 78.9912C431.862 76.0445 429.714 72.5272 428.201 68.4325C426.685 64.3432 425.93 59.8405 425.93 54.9299C425.93 50.1845 426.706 45.7659 428.262 41.6712C429.815 37.5805 432.026 34.0419 434.89 31.0525C437.755 28.0659 441.17 25.7125 445.142 23.9939C449.11 22.2752 453.507 21.4165 458.338 21.4165C463.739 21.4165 468.445 22.4605 472.455 24.5459C476.465 26.6325 479.761 29.4379 482.338 32.9552C484.917 36.4752 486.777 40.4859 487.925 44.9872C489.069 49.4885 489.478 54.1939 489.151 59.1032H443.362C443.607 64.7499 445.038 68.8445 447.659 71.3792" fill="#002F6D"/>
<path d="M573.254 34.3467C570.443 34.3467 568.086 34.988 566.185 36.268C564.283 37.552 562.733 39.204 561.537 41.2293C560.337 43.256 559.49 45.4867 558.994 47.9253C558.498 50.364 558.25 52.7827 558.25 55.1787C558.25 57.4947 558.498 59.8493 558.994 62.2467C559.49 64.6453 560.295 66.816 561.411 68.7573C562.529 70.7 564.035 72.2907 565.938 73.5307C567.838 74.7707 570.154 75.3907 572.882 75.3907C577.098 75.3907 580.341 74.212 582.615 71.8573C584.889 69.5013 586.314 66.3387 586.893 62.3707H603.882C602.723 70.8867 599.418 77.3747 593.962 81.8387C588.505 86.3027 581.519 88.5347 573.005 88.5347C568.211 88.5347 563.809 87.7293 559.799 86.1173C555.789 84.5053 552.379 82.2533 549.57 79.3587C546.758 76.4667 544.567 73.0147 542.998 69.0053C541.427 64.996 540.642 60.5947 540.642 55.7987C540.642 50.8387 541.365 46.232 542.813 41.9733C544.258 37.716 546.386 34.0373 549.198 30.9373C552.007 27.8373 555.438 25.4187 559.49 23.6827C563.539 21.9467 568.17 21.0787 573.378 21.0787C577.179 21.0787 580.837 21.5747 584.351 22.5667C587.865 23.5587 591.005 25.068 593.777 27.0933C596.545 29.12 598.798 31.64 600.534 34.656C602.27 37.676 603.262 41.2507 603.509 45.3827H586.274C585.115 38.0267 580.775 34.3467 573.254 34.3467Z" fill="#002F6D"/>
<path d="M764.648 62.4319C765.144 64.8719 765.991 67.0625 767.191 69.0039C768.388 70.9479 769.98 72.4972 771.964 73.6545C773.95 74.8132 776.428 75.3905 779.404 75.3905C782.382 75.3905 784.88 74.8132 786.906 73.6545C788.931 72.4972 790.543 70.9479 791.742 69.0039C792.94 67.0625 793.788 64.8719 794.286 62.4319C794.782 59.9945 795.028 57.4932 795.028 54.9305C795.028 52.3692 794.782 49.8465 794.286 47.3665C793.788 44.8865 792.94 42.6972 791.742 40.7932C790.543 38.8932 788.931 37.3439 786.906 36.1439C784.88 34.9466 782.382 34.3466 779.404 34.3466C776.428 34.3466 773.95 34.9466 771.964 36.1439C769.98 37.3439 768.388 38.8932 767.191 40.7932C765.991 42.6972 765.144 44.8865 764.648 47.3665C764.152 49.8465 763.904 52.3692 763.904 54.9305C763.904 57.4932 764.152 59.9945 764.648 62.4319ZM748.652 40.9799C750.223 36.8065 752.454 33.2519 755.348 30.3159C758.24 27.3825 761.714 25.1079 765.764 23.4959C769.814 21.8839 774.36 21.0786 779.404 21.0786C784.447 21.0786 789.014 21.8839 793.107 23.4959C797.199 25.1079 800.69 27.3825 803.584 30.3159C806.478 33.2519 808.71 36.8065 810.282 40.9799C811.85 45.1545 812.636 49.8052 812.636 54.9305C812.636 60.0572 811.85 64.6852 810.282 68.8185C808.71 72.9532 806.478 76.4865 803.584 79.4199C800.69 82.3559 797.199 84.6092 793.107 86.1785C789.014 87.7479 784.447 88.5345 779.404 88.5345C774.36 88.5345 769.814 87.7479 765.764 86.1785C761.714 84.6092 758.24 82.3559 755.348 79.4199C752.454 76.4865 750.223 72.9532 748.652 68.8185C747.082 64.6852 746.296 60.0572 746.296 54.9305C746.296 49.8052 747.082 45.1545 748.652 40.9799" fill="#002F6D"/>
<path d="M569.254 150.382C569.746 129.325 580.15 117.622 601.946 117.622H606.89V134.613L599.279 134.778C590.166 134.778 585.877 140.653 585.877 150.134V183.997H569.254V150.382Z" fill="#002F6D"/>
<path d="M652.505 133.992C650.419 131.701 647.245 130.555 642.989 130.555C640.207 130.555 637.896 131.025 636.055 131.965C634.213 132.909 632.74 134.075 631.636 135.464C630.531 136.856 629.752 138.331 629.303 139.885C628.852 141.44 628.587 142.831 628.505 144.057H656.863C656.044 139.639 654.591 136.284 652.505 133.992ZM632.803 167.383C635.42 169.92 639.185 171.188 644.095 171.188C647.613 171.188 650.644 170.309 653.18 168.549C655.715 166.791 657.271 164.927 657.844 162.964H673.191C670.735 170.575 666.971 176.019 661.896 179.291C656.82 182.565 650.683 184.2 643.481 184.2C638.489 184.2 633.987 183.404 629.977 181.807C625.967 180.211 622.571 177.94 619.789 174.995C617.005 172.047 614.857 168.529 613.344 164.436C611.828 160.347 611.073 155.844 611.073 150.932C611.073 146.187 611.849 141.768 613.405 137.675C614.959 133.583 617.169 130.044 620.033 127.056C622.899 124.069 626.313 121.716 630.285 119.997C634.253 118.279 638.651 117.419 643.481 117.419C648.883 117.419 653.588 118.464 657.599 120.549C661.608 122.635 664.904 125.44 667.481 128.959C670.06 132.479 671.92 136.489 673.068 140.989C674.212 145.491 674.621 150.196 674.295 155.107H628.505C628.751 160.752 630.181 164.847 632.803 167.383" fill="#002F6D"/>
<path d="M482.652 112.833H466.272V97.9161H482.652V112.833Z" fill="#002F6D"/>
<path d="M482.652 184.183H466.272V120.332H482.652V184.183Z" fill="#002F6D"/>
</svg>